<?xml version="1.0" encoding="UTF-8" standalone="no"?>
<!-- Created with Inkscape (http://www.inkscape.org/) -->

<svg
   version="1.1"
   id="svg2"
   width="757.33331"
   height="378.66666"
   viewBox="0 0 757.33331 378.66666"
   sodipodi:docname="烛梦教育 英文.eps"
   xmlns:inkscape="http://www.inkscape.org/namespaces/inkscape"
   xmlns:sodipodi="http://sodipodi.sourceforge.net/DTD/sodipodi-0.dtd"
   xmlns="http://www.w3.org/2000/svg"
   xmlns:svg="http://www.w3.org/2000/svg">
  <defs
     id="defs6" />
  <sodipodi:namedview
     id="namedview4"
     pagecolor="#ffffff"
     bordercolor="#000000"
     borderopacity="0.25"
     inkscape:showpageshadow="2"
     inkscape:pageopacity="0.0"
     inkscape:pagecheckerboard="0"
     inkscape:deskcolor="#d1d1d1" />
  <g
     id="g8"
     inkscape:groupmode="layer"
     inkscape:label="ink_ext_XXXXXX"
     transform="matrix(1.3333333,0,0,-1.3333333,0,378.66667)">
    <g
       id="g10"
       transform="scale(0.1)">
      <path
         d="m 1.73047,2366.17 c 0,0 57.94923,28.85 108.62153,-18.62 0,0 77.582,71.37 114.824,-34.14 37.238,-105.52 3.121,-35.24 28.187,-66.09 25.067,-30.86 -23.558,-97.33 -11.586,-144.62 11.176,-44.15 -15.422,-25.09 -23.136,-5.81 -7.711,19.28 2.668,59.08 -30.114,68.72 0,0 18.883,-12.23 22.332,-57.04 4.079,-52.87 19.938,-6.37 19.426,-74.19 -0.082,-11.11 -6.418,-46.56 -7.773,-64.73 -0.453,-6.09 -0.856,-11.88 -1.223,-17.38 l -0.383,-38.15 c -0.66,-22.76 1.641,-39.25 6.899,-49.45 5.258,-10.21 14.621,-16.88 28.093,-20.01 13.469,-3.14 34.665,-4.72 63.579,-4.72 61.113,0 109.418,7.66 144.902,22.96 35.484,15.31 68.672,46.12 99.559,92.42 -7.231,-21.97 -12.485,-41.2 -15.77,-57.69 -10.516,-51.01 -22.672,-89.27 -36.473,-114.79 -13.8,-25.5 -41.402,-45.71 -82.8,-60.63 -41.403,-14.91 -104.817,-22.37 -190.25,-22.37 -49.286,0 -86.907,3.34 -112.868,10.01 -25.9528,6.67 -45.1754,19.82 -57.6598,39.44 -12.4883,19.62 -18.7305,49.45 -18.7305,89.48 0,4.85 0.1563,12.68 0.4649,23.46 -1.3243,7.59 -2.1524,14.74 -2.8086,20.65 -3.8555,34.71 -13.3399,279.08 -11.4922,352.61 1.8515,73.53 17.8476,79.01 -33.82033,130.68 z M 765.027,2361.5 c 25.629,0 44.196,-4.7 55.696,-14.12 11.5,-9.42 17.246,-25.51 17.246,-48.27 l -0.985,-29.44 -2.957,-63.57 -4.925,-380.28 c 0,-25.12 2.461,-43.57 7.39,-55.34 4.926,-11.77 14.621,-17.66 29.078,-17.66 -30.226,-35.32 -71.3,-52.98 -123.215,-52.98 -28.257,0 -48.628,4.71 -61.117,14.13 -12.484,9.42 -18.726,26.69 -18.726,51.8 0,45.53 1.312,116.17 3.941,211.92 3.285,86.34 4.926,169.54 4.926,249.6 0,29.82 -3.449,51.02 -10.348,63.57 -6.898,12.56 -21.191,18.84 -42.879,18.84 21.032,18.05 44.524,31.2 70.481,39.44 25.957,8.24 51.422,12.36 76.394,12.36 z m 861.523,-483.88 c -70.31,-122.44 -184.66,-183.66 -343.03,-183.66 -97.26,0 -174.15,23.34 -230.66,70.05 -56.516,46.7 -84.774,122.64 -84.774,227.81 0,76.92 15.113,143.63 45.344,200.15 30.23,56.51 73.6,99.87 130.12,130.09 56.51,30.22 123.87,45.33 202.07,45.33 74.26,0 131.1,-12.75 170.53,-38.26 39.43,-25.51 59.15,-59.85 59.15,-103.02 0,-20.41 -4.44,-35.91 -13.31,-46.5 -8.87,-10.6 -19.72,-17.86 -32.53,-21.78 -12.82,-3.93 -30.39,-7.07 -52.74,-9.42 -24.97,-3.14 -44.35,-6.68 -58.15,-10.6 -13.8,-3.92 -25.3,-11.77 -34.51,-23.55 3.95,18.06 5.92,34.15 5.92,48.28 0,26.68 -7.39,46.5 -22.18,59.45 -14.79,12.95 -37.29,19.43 -67.52,19.43 -55.21,0 -95.29,-20.02 -120.26,-60.05 -24.97,-40.03 -37.46,-94.19 -37.46,-162.47 0,-77.7 16.43,-136.18 49.29,-175.42 33.51,-11.78 70.97,-17.66 112.37,-17.66 47.97,0 86.08,9.02 114.35,27.07 4.59,17.27 6.89,37.29 6.89,60.05 0,13.35 -0.98,25.9 -2.95,37.67 -13.8,3.14 -31.55,4.71 -53.23,4.71 -29.57,0 -52.57,-3.92 -69,-11.77 -16.43,-7.85 -32.53,-24.73 -48.3,-50.62 2.63,10.2 5.25,27.07 7.88,50.62 3.29,31.4 9.04,56.51 17.25,75.35 8.22,18.84 24.81,34.34 49.78,46.51 24.97,12.16 62.76,18.24 113.36,18.24 36.8,0 65.39,-3.92 85.76,-11.77 20.37,-7.85 34.99,-20.8 43.87,-38.85 8.87,-18.05 13.3,-43.17 13.3,-75.35 0,-4.71 -0.16,-15.3 -0.49,-31.79 -0.33,-16.48 1.15,-29.43 4.44,-38.85 3.28,-9.42 11.17,-14.13 23.65,-14.13 5.26,0 10.52,1.57 15.77,4.71 z m -159.68,21.19 -0.99,-2.35 z m 898,-145.99 c -30.23,-35.32 -71.3,-52.98 -123.22,-52.98 -28.26,0 -48.63,4.71 -61.11,14.13 -12.49,9.42 -18.74,26.69 -18.74,51.8 0,44.74 1.32,112.64 3.95,203.68 -54.55,4.71 -108.76,7.07 -162.65,7.07 -44.68,0 -77.54,-0.79 -98.57,-2.36 l -1.97,-148.34 c 0,-25.12 2.46,-43.57 7.39,-55.34 4.93,-11.77 14.62,-17.66 29.08,-17.66 -30.23,-35.32 -71.3,-52.98 -123.21,-52.98 -28.27,0 -48.64,4.71 -61.12,14.13 -12.49,9.42 -18.73,26.69 -18.73,51.8 0,45.53 1.32,116.17 3.94,211.92 3.29,86.34 4.93,169.54 4.93,249.6 0,29.82 -3.45,51.02 -10.35,63.57 -6.9,12.56 -21.19,18.84 -42.88,18.84 21.03,18.05 44.52,31.2 70.48,39.44 25.96,8.24 51.42,12.36 76.4,12.36 25.62,0 44.19,-4.7 55.69,-14.12 11.5,-9.42 17.25,-25.51 17.25,-48.27 l -0.98,-29.44 -2.96,-63.57 -0.99,-109.5 c 47.97,7.85 97.59,11.78 148.85,11.78 34.83,0 72.94,-1.97 114.34,-5.89 l 0.99,124.8 c 0,29.82 -3.45,51.02 -10.35,63.57 -6.9,12.56 -21.2,18.84 -42.88,18.84 21.03,18.05 44.52,31.2 70.48,39.44 25.95,8.24 51.42,12.36 76.39,12.36 25.63,0 44.2,-4.7 55.7,-14.12 11.5,-9.42 17.25,-25.51 17.25,-48.27 l -0.99,-29.44 -2.96,-63.57 -4.93,-380.28 c 0,-25.12 2.47,-43.57 7.4,-55.34 4.92,-11.77 14.62,-17.66 29.08,-17.66 z m 730.42,510.97 c 0,-35.33 -7.88,-63.58 -23.66,-84.77 -15.77,-21.19 -38.44,-41.6 -68.01,-61.22 3.29,10.2 4.93,20.4 4.93,30.61 0,23.54 -11.67,40.61 -35,51.21 -23.32,10.59 -62.92,15.9 -118.78,15.9 h -4.93 v -9.42 l -4.93,-380.28 c -0.65,-25.12 1.65,-43.57 6.91,-55.34 5.25,-11.77 15.11,-17.66 29.57,-17.66 -30.23,-35.32 -73.6,-52.98 -130.12,-52.98 -25.63,0 -44.19,5.3 -55.69,15.89 -11.5,10.6 -17.25,30.42 -17.25,59.46 0,33.76 1.31,106.35 3.94,217.81 0.66,20.41 1.64,54.75 2.96,103.02 1.31,48.27 1.97,88.1 1.97,119.5 h -5.91 c -47.32,0 -84.61,-2.36 -111.88,-7.07 -27.28,-4.71 -51.1,-14.13 -71.47,-28.25 -20.37,-14.13 -39.43,-35.32 -57.17,-63.58 3.28,16.48 5.59,36.49 6.9,60.04 3.28,40.82 9.53,73.39 18.73,97.72 9.2,24.33 30.89,44.94 65.06,61.81 34.17,16.88 86.08,25.31 155.74,25.31 h 123.21 c 80.18,0 140.31,-2.94 180.39,-8.82 40.09,-5.89 67.53,-15.5 82.31,-28.85 14.79,-13.35 22.18,-33.36 22.18,-60.04 z M 122.813,2834.05 c 0,0 -13.516,-117.14 -65.3325,-216.27 -51.81253,-99.13 13.5156,-209.51 72.0895,-207.26 58.578,2.25 108.137,92.37 67.59,225.28 -40.555,132.92 -42.808,85.61 -74.347,198.25 z M 1840.96,1465.02 c 0,-25.12 -11.83,-54.75 -35.49,-88.89 -23.65,-34.14 -54.54,-68.09 -92.65,-101.84 -38.12,-33.75 -77.55,-62.79 -118.29,-87.12 l -4.93,-207.213 c -0.66,-26.684 1.48,-45.523 6.41,-56.512 4.92,-10.988 14.95,-16.484 30.06,-16.484 -30.23,-35.32 -71.3,-52.977 -123.21,-52.977 -27.61,0 -47.81,5.102 -60.63,15.301 -12.81,10.207 -19.22,29.438 -19.22,57.692 0,17.265 0.33,34.339 0.99,51.214 0.65,16.875 1.31,33.169 1.97,48.859 2.63,55.73 4.27,102.04 4.92,138.93 -7.88,5.49 -17.08,13.73 -27.59,24.72 -22.35,23.55 -45.02,53.18 -68.02,88.89 -23,35.71 -42.39,69.27 -58.16,100.66 -13.8,26.69 -26.61,45.13 -38.44,55.33 -11.83,10.21 -28.59,14.92 -50.27,14.13 17.74,20.41 41.23,36.5 70.48,48.27 29.24,11.78 58.98,17.66 89.2,17.66 19.72,0 35.33,-3.14 46.83,-9.41 11.5,-6.28 21.52,-17.66 30.06,-34.15 31.55,-57.29 54.71,-98.89 69.5,-124.79 14.78,-25.91 29.4,-48.67 43.86,-68.29 42.71,35.32 72.29,63.77 88.71,85.36 16.43,21.58 24.65,41.01 24.65,58.28 0,11.77 -3.29,20.6 -9.86,26.49 -6.57,5.88 -17.08,10 -31.54,12.36 22.34,18.83 47.48,32.57 75.41,41.21 27.93,8.62 55.04,12.94 81.32,12.94 49.29,0 73.93,-16.87 73.93,-50.62 z m 706.77,-262.55 c 0,-70.64 -15.12,-132.84 -45.34,-186.6 -30.23,-53.768 -72.62,-95.175 -127.16,-124.214 -54.55,-29.043 -116.65,-43.562 -186.31,-43.562 -87.4,0 -158.21,23.547 -212.42,70.644 -54.21,47.09 -81.32,123.622 -81.32,229.582 0,76.13 15.11,142.45 45.34,198.97 30.23,56.51 71.46,99.67 123.71,129.5 52.24,29.83 111.22,44.74 176.94,44.74 58.48,0 110.89,-12.36 157.22,-37.08 46.33,-24.73 82.8,-61.23 109.41,-109.5 26.62,-48.27 39.93,-105.76 39.93,-172.48 z m -180.39,3.53 c 0,58.09 -6.57,105.18 -19.71,141.29 -29.58,29.03 -66.05,43.56 -109.42,43.56 -56.51,0 -97.92,-20.02 -124.2,-60.05 -26.29,-40.03 -39.43,-95.36 -39.43,-166 0,-74.57 12.81,-130.29 38.44,-167.183 24.97,-11.773 53.23,-17.66 84.77,-17.66 63.09,0 107.12,18.641 132.09,55.923 24.98,37.28 37.46,93.99 37.46,170.12 z m 883.21,248.42 -0.98,-25.9 c -1.97,-35.32 -2.96,-58.08 -2.96,-68.29 v -211.91 c 0,-102.83 -23.98,-178.566 -71.96,-227.23 -47.97,-48.664 -125.18,-72.996 -231.64,-72.996 -88.06,0 -154.6,18.836 -199.62,56.511 -45.01,37.676 -67.52,105.575 -67.52,203.685 0,16.48 1.32,54.55 3.95,114.2 3.28,88.69 4.93,141.67 4.93,158.94 0,29.82 -3.46,51.02 -10.36,63.57 -6.9,12.56 -21.19,18.84 -42.87,18.84 21.02,18.05 45.01,31.2 71.96,39.44 26.94,8.24 52.9,12.36 77.87,12.36 24.31,0 42.05,-4.71 53.22,-14.12 11.18,-9.43 16.76,-25.12 16.76,-47.1 l -0.98,-30.61 -2.96,-63.58 -2.96,-214.27 c 0,-51.8 7.89,-89.08 23.66,-111.85 15.77,-22.75 45.68,-34.137 89.7,-34.137 42.06,0 71.47,10.397 88.23,31.197 16.75,20.8 27.1,54.74 31.05,101.84 1.97,25.9 3.61,62.4 4.93,109.49 1.31,47.1 1.96,88.3 1.96,123.62 0,36.11 -4.1,60.63 -12.32,73.59 -8.21,12.95 -24.15,19.42 -47.8,19.42 23.65,19.62 49.28,33.95 76.88,42.98 27.6,9.02 53.23,13.53 76.89,13.53 24.32,0 42.55,-4.71 54.71,-14.12 12.16,-9.43 18.23,-25.12 18.23,-47.1 z m 788.59,-510.963 c -15.12,-29.82 -33.35,-52.191 -54.71,-67.105 -21.36,-14.914 -51.42,-22.368 -90.19,-22.368 -25.63,0 -47.65,4.317 -66.05,12.946 -18.4,8.636 -37.62,24.531 -57.66,47.687 -20.05,23.153 -44.2,57.883 -72.45,104.193 -15.78,26.68 -28.43,45.91 -37.95,57.69 -9.53,11.77 -19.88,20.41 -31.06,25.9 -14.45,0 -35.48,1.57 -63.08,4.71 l -1.97,-127.153 c 0,-25.113 2.46,-43.562 7.39,-55.336 4.93,-11.773 14.62,-17.66 29.08,-17.66 -17.09,-20.406 -35.49,-34.336 -55.2,-41.793 -19.72,-7.457 -41.08,-11.184 -64.08,-11.184 -26.28,0 -46.82,4.903 -61.6,14.711 -14.79,9.817 -22.18,26.887 -22.18,51.219 0,44.738 1.31,111.846 3.94,201.316 3.29,80.06 4.93,159.34 4.93,237.83 0,29.82 -3.45,52.19 -10.35,67.11 -6.9,14.91 -21.19,24.72 -42.88,29.43 35.48,21.98 80.01,38.46 133.57,49.45 53.56,10.99 107.28,16.48 161.16,16.48 88.06,0 157.72,-16.68 208.98,-50.04 51.26,-33.35 76.88,-82.21 76.88,-146.57 0,-42.39 -11.33,-80.06 -34,-113.03 -22.68,-32.96 -55.04,-58.86 -97.1,-77.7 13.8,-7.06 27.6,-18.05 41.4,-32.97 13.8,-14.91 29.58,-36.1 47.32,-63.57 24.31,-38.462 45.35,-65.541 63.08,-81.24 17.75,-15.699 34.84,-23.547 51.27,-23.547 11.17,0 22.34,3.532 33.51,10.594 z m -472.17,296.683 c 25.63,-10.98 53.89,-16.48 84.78,-16.48 38.11,0 64.73,8.05 79.84,24.14 15.11,16.09 22.67,40.62 22.67,73.58 0,25.91 -5.91,47.49 -17.74,64.76 -17.09,8.63 -39.43,12.95 -67.03,12.95 -33.51,0 -66.7,-5.5 -99.56,-16.48 -0.66,-4.72 -0.98,-12.17 -0.98,-22.38 z M 2781.85,368.285 c 0,-76.805 -16.26,-142.527 -48.8,-197.16 C 2700.53,116.488 2653.7,75.1172 2592.59,47.0078 2531.48,18.8984 2458.86,4.84375 2374.74,4.84375 c -51.26,0 -91.01,3.76172 -119.27,11.28515 -28.26,7.5195 -48.96,21.1797 -62.1,40.9766 -13.14,19.7929 -19.71,48.6955 -19.71,86.7035 0,8.711 1.31,47.906 3.93,117.582 5.26,104.519 7.89,189.246 7.89,254.172 0,30.085 -3.45,52.656 -10.35,67.699 -6.9,15.043 -21.19,24.941 -42.88,29.695 39.43,19.793 87.89,34.641 145.4,44.535 57.5,9.899 112.21,14.848 164.12,14.848 226.72,0 340.08,-101.352 340.08,-304.055 z m -179.4,3.563 c 0,57.011 -8.22,105.312 -24.65,144.902 -28.91,14.254 -66.04,21.379 -111.39,21.379 -44.02,0 -83.45,-6.336 -118.28,-19.004 l -2.96,-306.43 c -0.66,-22.172 0.99,-38.402 4.93,-48.695 3.94,-10.293 10.02,-17.227 18.24,-20.785 8.21,-3.567 21.19,-5.348 38.93,-5.348 71.63,0 122.07,18.805 151.31,56.418 29.24,37.613 43.87,96.801 43.87,177.563 z M 3559.59,95.1094 c -15.11,-30.0899 -33.35,-52.6563 -54.71,-67.6992 -21.36,-15.0469 -51.42,-22.56645 -90.19,-22.56645 -25.63,0 -47.65,4.35547 -66.05,13.06645 -18.39,8.7109 -37.62,24.7421 -57.66,48.1015 -20.05,23.3594 -44.19,58.3943 -72.45,105.1133 -15.77,26.922 -28.42,46.32 -37.95,58.199 -9.53,11.875 -19.88,20.586 -31.05,26.129 -14.46,0 -35.49,1.582 -63.09,4.75 l -1.97,-128.273 c 0,-25.34 2.46,-43.9456 7.39,-55.8206 4.93,-11.8789 14.62,-17.8164 29.08,-17.8164 -17.08,-20.5899 -35.49,-34.6446 -55.2,-42.1641 -19.71,-7.52343 -41.07,-11.28515 -64.07,-11.28515 -26.29,0 -46.83,4.94922 -61.61,14.84765 -14.79,9.8984 -22.18,27.1211 -22.18,51.6641 0,45.1325 1.32,112.8355 3.94,203.1015 3.29,80.766 4.93,160.738 4.93,239.918 0,30.09 -3.45,52.656 -10.35,67.699 -6.9,15.043 -21.19,24.942 -42.88,29.696 35.49,22.168 80.01,38.796 133.57,49.882 53.56,11.086 107.28,16.629 161.16,16.629 88.06,0 157.72,-16.828 208.98,-50.48 51.26,-33.653 76.89,-82.942 76.89,-147.871 0,-42.758 -11.34,-80.762 -34.01,-114.02 -22.67,-33.258 -55.04,-59.387 -97.09,-78.39 13.8,-7.125 27.59,-18.211 41.39,-33.254 13.8,-15.043 29.58,-36.422 47.32,-64.137 24.31,-38.801 45.34,-66.117 63.09,-81.953 17.74,-15.8362 34.82,-23.7541 51.25,-23.7541 11.18,0 22.35,3.5625 33.52,10.6875 z M 3087.43,394.414 c 25.62,-11.086 53.88,-16.625 84.77,-16.625 38.11,0 64.73,8.113 79.84,24.344 15.12,16.234 22.67,40.98 22.67,74.234 0,26.129 -5.91,47.906 -17.74,65.324 -17.09,8.711 -39.43,13.067 -67.03,13.067 -33.51,0 -66.7,-5.547 -99.56,-16.629 -0.66,-4.75 -0.99,-12.274 -0.99,-22.566 z M 4125.4,249.516 c -4.6,-15.84 -8.22,-34.047 -10.84,-54.637 -7.23,-54.633 -17.75,-94.426 -31.55,-119.3634 -13.8,-24.9414 -39.26,-42.957 -76.39,-54.0429 -37.13,-11.086 -95.45,-16.62895 -174.97,-16.62895 -57.17,0 -100.7,3.5625 -130.61,10.69145 -29.9,7.125 -51.58,20.5859 -65.06,40.3828 -13.47,19.7929 -20.21,49.09 -20.21,87.891 0,14.25 1.32,54.632 3.95,121.144 5.26,99.77 7.89,191.223 7.89,274.363 0,29.297 -3.45,50.282 -10.36,62.95 -6.89,12.668 -21.19,20.984 -42.87,24.941 65.05,30.09 166.91,45.133 305.57,45.133 67.69,0 119.11,-2.574 154.27,-7.719 35.16,-5.144 60.13,-14.254 74.91,-27.32 14.79,-13.063 22.18,-32.266 22.18,-57.602 0,-25.34 -5.58,-45.531 -16.75,-60.574 -11.17,-15.047 -28.92,-31.672 -53.24,-49.883 -7.88,-6.336 -14.45,-12.668 -19.71,-19.004 1.32,11.086 1.97,18.606 1.97,22.567 0,18.211 -4.76,31.871 -14.29,40.976 -9.53,9.106 -24.31,15.242 -44.36,18.41 -20.04,3.164 -48.79,4.75 -86.25,4.75 h -108.43 v -21.378 l -0.98,-122.336 h 171.51 c 34.17,0 58.33,1.98 72.45,5.941 14.13,3.957 30.07,13.461 47.81,28.504 -8.54,-16.629 -15.77,-34.445 -21.68,-53.449 -7.89,-23.754 -15.78,-42.36 -23.66,-55.821 -7.89,-13.461 -20.87,-24.742 -38.94,-33.847 -18.07,-9.11 -43.53,-13.66 -76.39,-13.66 h -132.09 l -0.99,-55.825 c -0.65,-22.965 2.14,-39.59 8.38,-49.882 6.24,-10.293 17.25,-17.028 33.03,-20.192 15.76,-3.172 40.41,-4.75 73.93,-4.75 38.77,0 70.64,2.375 95.61,7.125 24.97,4.75 48.14,15.043 69.49,30.879 21.36,15.84 40.58,39.594 57.67,71.266 z M 4876.52,70.168 C 4864.7,47.207 4848.43,30.5781 4827.73,20.2852 4807.03,9.99219 4781.57,4.84375 4751.34,4.84375 c -19.06,0 -34.18,2.96875 -45.34,8.90625 -11.18,5.9414 -21.04,16.8281 -29.58,32.6641 -8.54,15.8359 -17.74,40.3828 -27.6,73.6409 l -13.8,45.133 c -67.03,3.164 -117.3,4.75 -150.81,4.75 -22.35,0 -53.89,-0.793 -94.64,-2.375 l -10.84,-40.383 c -3.28,-13.461 -4.93,-23.36 -4.93,-29.6917 0,-22.1719 12.49,-31.2813 37.46,-27.3203 -34.17,-43.5469 -81.49,-65.32425 -141.95,-65.32425 -24.97,0 -43.2,3.76172 -54.7,11.28515 -11.5,7.5195 -17.25,19.9922 -17.25,37.4102 0,16.6289 6.57,44.7382 19.71,84.3279 31.55,87.891 67.52,173.606 107.94,257.141 40.42,83.539 80.17,151.633 119.27,204.289 39.1,52.656 71.79,78.984 98.08,78.984 12.49,0 26.12,-6.535 40.91,-19.601 14.78,-13.063 30.07,-33.055 45.84,-59.977 24.97,-43.551 52.9,-102.539 83.78,-176.969 30.89,-74.429 60.79,-152.824 89.71,-235.168 11.83,-34.839 21.35,-60.179 28.58,-76.015 7.23,-15.8362 14.3,-26.7268 21.2,-32.6643 6.89,-5.9375 14.94,-8.5117 24.14,-7.7187 z m -286.84,228.043 c -24.97,66.512 -49.29,126.293 -72.95,179.344 -34.17,-64.137 -63.08,-127.086 -86.74,-188.848 42.06,6.336 87.4,9.504 136.03,9.504 z M 5671.02,58.293 C 5640.8,22.6602 5600.71,4.84375 5550.77,4.84375 c -24.98,0 -43.38,6.13675 -55.2,18.41015 -11.84,12.2734 -17.75,35.8281 -17.75,70.668 v 67.7031 c 0,64.133 0.66,113.422 1.97,147.867 1.32,34.446 3.94,64.731 7.89,90.863 l -30.56,-57.011 c -40.74,-77.598 -71.8,-131.637 -93.15,-162.125 -21.36,-30.485 -42.55,-45.727 -63.58,-45.727 -24.97,0 -52.57,21.977 -82.8,65.918 -30.23,43.945 -67.03,110.656 -110.41,200.133 3.29,-26.926 4.93,-70.867 4.93,-131.836 V 131.93 c 0,-25.34 2.47,-43.9456 7.4,-55.8206 4.93,-11.8789 14.62,-17.8164 29.08,-17.8164 -30.23,-35.6328 -69.33,-53.44925 -117.3,-53.44925 -24.98,0 -43.87,5.74215 -56.68,17.22265 -12.82,11.4805 -19.23,32.6641 -19.23,63.543 0,23.7536 1.32,88.6836 3.95,194.7856 3.28,156.777 4.93,245.859 4.93,267.238 0,30.879 -3.95,53.047 -11.83,66.512 -7.89,13.457 -21.69,21.378 -41.4,23.753 32.85,22.961 67.68,34.442 104.48,34.442 31.54,0 59.31,-9.699 83.3,-29.098 23.98,-19.398 50.76,-53.051 80.33,-100.957 29.57,-47.902 72.62,-125.305 129.13,-232.199 68.35,120.359 116.82,203.301 145.4,248.828 28.59,45.527 52.57,75.816 71.96,90.859 19.39,15.043 43.53,22.567 72.45,22.567 24.31,0 44.36,-3.957 60.13,-11.875 -7.89,-10.293 -12.98,-26.129 -15.28,-47.508 -2.3,-21.379 -3.78,-64.137 -4.44,-128.273 l -3.94,-352.754 c -0.66,-25.34 1.65,-43.9456 6.9,-55.8206 5.26,-11.8789 15.12,-17.8164 29.57,-17.8164 z M 4961.41,2193.02 c 334.68,0 606.09,-271.41 606.09,-606.09 0,-334.68 -271.41,-606.09 -606.09,-606.09 -334.68,0 -606.09,271.41 -606.09,606.09 0,334.68 271.41,606.09 606.09,606.09 z m 0,-67.34 c 297.49,0 538.74,-241.25 538.74,-538.75 0,-297.49 -241.25,-538.75 -538.74,-538.75 -297.5,0 -538.75,241.26 -538.75,538.75 0,297.5 241.25,538.75 538.75,538.75 z m -3.12,-67.34 c 0,0 -11.42,-98.95 -55.18,-182.68 -43.77,-83.73 11.41,-176.97 60.89,-175.07 49.47,1.91 91.34,78.02 57.09,190.29 -34.26,112.27 -36.16,72.32 -62.8,167.46 z m -124.64,-383.18 c 0,0 57.19,28.48 107.19,-18.37 0,0 76.57,70.44 113.32,-33.69 36.75,-104.13 3.08,-34.78 27.82,-65.22 24.73,-30.45 -23.25,-96.05 -11.44,-142.72 11.03,-43.57 -15.22,-24.76 -22.83,-5.73 -7.61,19.03 2.63,58.3 -29.72,67.82 0,0 18.64,-12.07 22.05,-56.3 4.01,-52.18 19.67,-6.29 19.16,-73.22 -0.08,-10.95 -6.33,-45.94 -7.67,-63.87 -9.51,-127.49 3.81,-119.88 -78.02,-157.94 -81.82,-38.06 -91.34,38.06 -95.14,72.31 -3.81,34.25 -13.17,275.41 -11.34,347.97 1.82,72.57 17.61,77.98 -33.38,128.96"
         style="fill:#231f20;fill-opacity:1;fill-rule:evenodd;stroke:none"
         id="path12" />
    </g>
  </g>
</svg>
